PathFileType	4	(X/Y/Z)	C:\Users\Basilio\Documents\Thesis Gigler\squatting_fais\c3dfiles\039\SLS_pre_back5\markers_experimental.trc
DataRate	CameraRate	NumFrames	NumMarkers	Units	OrigDataRate	OrigDataStartFrame	OrigNumFrames
200.000000	200.000000	4	65	mm	200.000000	0	1934
Frame#	Time	FHD			LBHD			RBHD			C7			T10			CLAV			LSHO			LUUPA			LMUPA			LDUPA			LLEP			LMEP			LRAD			LUL			LRFIN			RSHO			RUPA1			RMUPA			RDUPA			RLEP			RMEP			RRAD			RUL			RUFIN			LASI			RASI			USACR			LSACR			RSACR			LTHI1			LTHI2			LTHI3			LTHI4			LLFC			LMFC			LTIB1			LTIB2			LTIB3			LTIB4			LLMAL			LMMAL			LHEE			LMT1			LMT2			LMT5			RTHI			RTHI2			RTHI3			RTHI4			RLFC			RMFC			RTIB1			RTIB2			RTIB3			RTIB4			RLMAL			RMMAL			RHEE			RMT1			RMT2			RMT5			*61			*62			*63			*64			
		X1	Y1	Z1	X2	Y2	Z2	X3	Y3	Z3	X4	Y4	Z4	X5	Y5	Z5	X6	Y6	Z6	X7	Y7	Z7	X8	Y8	Z8	X9	Y9	Z9	X10	Y10	Z10	X11	Y11	Z11	X12	Y12	Z12	X13	Y13	Z13	X14	Y14	Z14	X15	Y15	Z15	X16	Y16	Z16	X17	Y17	Z17	X18	Y18	Z18	X19	Y19	Z19	X20	Y20	Z20	X21	Y21	Z21	X22	Y22	Z22	X23	Y23	Z23	X24	Y24	Z24	X25	Y25	Z25	X26	Y26	Z26	X27	Y27	Z27	X28	Y28	Z28	X29	Y29	Z29	X30	Y30	Z30	X31	Y31	Z31	X32	Y32	Z32	X33	Y33	Z33	X34	Y34	Z34	X35	Y35	Z35	X36	Y36	Z36	X37	Y37	Z37	X38	Y38	Z38	X39	Y39	Z39	X40	Y40	Z40	X41	Y41	Z41	X42	Y42	Z42	X43	Y43	Z43	X44	Y44	Z44	X45	Y45	Z45	X46	Y46	Z46	X47	Y47	Z47	X48	Y48	Z48	X49	Y49	Z49	X50	Y50	Z50	X51	Y51	Z51	X52	Y52	Z52	X53	Y53	Z53	X54	Y54	Z54	X55	Y55	Z55	X56	Y56	Z56	X57	Y57	Z57	X58	Y58	Z58	X59	Y59	Z59	X60	Y60	Z60	X61	Y61	Z61	X62	Y62	Z62	X63	Y63	Z63	X64	Y64	Z64	X65	Y65	Z65	

1	0	-221.6487884521485	1792.0263671875	-832.105895996094	-368.7422790527344	1758.76708984375	-964.342468261719	-353.4275512695313	1767.609741210938	-823.8438720703127	-412.5332641601564	1588.37353515625	-905.5191040039065	-398.4352416992189	1277.777465820313	-912.663024902344	-264.2904663085938	1532.850219726563	-898.4594726562502	-321.0788574218751	1581.491821289063	-1073.485107421875	-172.4768218994141	1454.6943359375	-1173.873046875	-137.9224090576172	1486.326782226563	-1158.006469726563	-104.2205352783203	1441.935302734375	-1180.197509765625	-37.01396942138673	1430.729858398438	-1180.223266601563	-51.55587005615236	1368.41650390625	-1131.03076171875	233.7149353027344	1411.851928710938	-1069.392211914063	238.9339447021485	1394.2548828125	-1143.818481445313	317.8230285644532	1431.050903320313	-1066.27392578125	-318.3435363769532	1577.7109375	-726.0084228515626	-204.1405944824219	1425.816040039063	-618.1380615234376	-162.7185363769532	1450.017700195313	-628.2701416015626	-141.1411743164063	1396.836181640625	-607.3830566406251	-77.6464309692383	1386.99462890625	-604.1454467773439	-88.50084686279298	1330.404296875	-659.1914672851564	215.4715423583985	1348.761474609375	-661.5178833007814	203.6269836425782	1321.379150390625	-590.2243652343751	300.7905273437501	1363.816650390625	-638.2783813476564	-211.533187866211	1101.80810546875	-1015.858337402344	-219.5285949707032	1093.249877929688	-789.1832275390627	-401.8576660156251	1152.96240234375	-907.136657714844	-401.8114013671876	1119.96142578125	-935.4136352539065	-407.8865051269532	1120.294921875	-877.048767089844	-290.0206298828126	820.999938964844	-1084.860229492188	-260.4714660644532	741.5091552734376	-1082.944213867188	-213.5196990966797	743.8056640625001	-1074.752685546875	-290.3497924804688	690.1957397460939	-1070.664794921875	-300.0448608398438	566.4522094726564	-1066.2470703125	-268.7969360351563	541.8128051757814	-953.8183593750002	-250.7030181884766	415.4082641601564	-1044.273681640625	-321.2770996093751	376.2864685058594	-1080.85205078125	-279.3310546875001	370.8013916015626	-1067.437622070313	-279.8884582519532	291.2420349121094	-1028.3212890625	-348.8072814941407	125.3495864868164	-1051.998657226563	-327.3702697753907	127.6103515625	-968.722351074219	-414.8262634277345	84.83846282958986	-1009.938293457031	-182.5553283691407	56.87060165405275	-993.202819824219	-191.6088562011719	52.21955490112306	-1036.361694335938	-238.6457061767579	31.57085418701173	-1085.134643554688	-272.1037597656251	823.736511230469	-720.4296264648439	-231.2177429199219	770.7637939453127	-714.6928100585939	-199.268783569336	775.5772094726565	-719.3022460937501	-255.3389892578126	689.4116210937501	-722.3557128906251	-288.6933288574219	549.7323608398439	-743.0571899414064	-245.8565826416016	533.0595703125001	-853.0494384765627	-266.8599548339844	334.6310119628907	-744.6596679687501	-357.6146240234376	277.5313415527344	-740.4406127929689	-313.2384643554688	264.7783203125001	-735.0104370117189	-297.9773254394532	213.2914581298829	-764.4669189453126	-370.8668518066407	123.415641784668	-742.1178588867189	-338.2107849121094	137.7995910644532	-824.8909912109377	-438.314422607422	99.76226043701175	-794.1954345703127	-214.3426513671876	55.23766708374025	-802.422302246094	-218.2428436279297	55.1171112060547	-756.6059570312501	-273.5134277343751	34.17328643798829	-706.5623779296876	nan	nan	nan	nan	nan	nan	nan	nan	nan	nan	nan	nan	
2	0.005	-222.3617248535157	1791.81982421875	-832.4866333007815	-369.1242065429688	1758.829711914063	-964.2352294921877	-353.4436035156251	1767.133178710938	-823.6936035156252	-412.7999572753907	1588.293701171875	-905.471618652344	-398.5957336425782	1277.79248046875	-912.634460449219	-264.5368347167969	1533.002319335938	-898.454040527344	-321.3703308105469	1581.896484375	-1073.165893554688	-171.5814056396485	1456.762939453125	-1173.375122070313	-137.3545989990235	1488.767578125	-1157.3427734375	-103.2636489868164	1444.60546875	-1179.473022460938	-35.98397827148438	1433.941528320313	-1179.142822265625	-50.17182922363283	1371.392822265625	-1130.28515625	234.822006225586	1417.203735351563	-1067.909912109375	240.2694091796876	1399.76025390625	-1142.407958984375	318.7590026855469	1436.949584960938	-1064.703125	-318.7648620605469	1578.226928710938	-726.2474975585939	-202.9526672363282	1427.908325195313	-618.4127807617189	-161.9370269775391	1452.5078125	-628.7264404296876	-139.893783569336	1399.586059570313	-607.4594726562501	-76.1568069458008	1390.223266601563	-604.6034545898439	-86.6511917114258	1333.412353515625	-659.6508789062501	216.8193969726563	1354.214233398438	-662.0794067382814	205.487533569336	1326.989990234375	-590.5892333984376	302.3929748535157	1369.941650390625	-639.2462768554689	-211.5690917968751	1101.860595703125	-1015.707092285156	-219.7256622314454	1093.29638671875	-788.9616699218752	-401.9647521972657	1152.9697265625	-907.1065673828127	-401.8522033691407	1119.9609375	-935.363220214844	-407.9877014160157	1120.297973632813	-876.990661621094	-290.0249328613282	821.0474243164065	-1084.784545898438	-260.4540710449219	741.5303955078126	-1082.853393554688	-213.5039978027344	743.8243408203126	-1074.638671875	-290.3161315917969	690.2254638671876	-1070.575561523438	-300.0203247070313	566.4674682617189	-1066.186767578125	-268.8345336914063	541.7965087890626	-953.7210693359377	-250.6282348632813	415.3898925781251	-1044.212646484375	-321.1846313476563	376.3513793945313	-1080.753051757813	-279.2303161621094	370.8078613281251	-1067.40771484375	-279.8871154785157	291.2420959472657	-1028.295043945313	-348.8138732910157	125.3651428222657	-1051.966430664063	-327.3900756835938	127.681755065918	-968.662048339844	-414.7544860839845	84.8098831176758	-1009.899108886719	-182.5421752929688	56.86222457885744	-993.2281494140627	-191.6089172363282	52.21937942504884	-1036.361694335938	-238.7154998779297	31.55869483947755	-1085.110717773438	-272.1855163574219	823.7500000000002	-720.3934326171876	-231.3340301513672	770.8386840820315	-714.6098632812501	-199.3970642089844	775.572692871094	-719.2175903320314	-255.7532653808594	688.9801025390626	-722.4568481445314	-288.8873291015626	549.7830810546876	-743.0266113281251	-245.9636993408204	533.0968627929689	-853.047546386719	-266.9368896484376	334.6502990722657	-744.6784667968751	-357.7148437500001	277.5398864746094	-740.4606933593751	-313.2766723632813	264.7783813476563	-735.0115356445314	-298.0064392089844	213.3244171142579	-764.4764404296876	-370.9041442871094	123.4073028564453	-742.0929565429689	-338.2221984863282	137.8419189453125	-824.8909912109377	-438.3324584960939	99.77050781250003	-794.1687622070315	-214.3593292236329	55.15526580810548	-802.4346923828127	-218.2380676269532	55.11132812500001	-756.5795898437501	-273.4976196289063	34.18633651733399	-706.5894165039064	nan	nan	nan	nan	nan	nan	nan	nan	nan	nan	nan	nan	
3	0.01	-222.2162475585938	1791.9892578125	-832.073425292969	-369.6039123535157	1758.900390625	-964.0598754882815	-353.6953125000001	1767.133056640625	-823.5964965820315	-413.0757141113282	1588.269775390625	-905.470153808594	-398.7379150390626	1277.7890625	-912.6091308593752	-264.9208984375001	1533.178344726563	-898.3582763671877	-321.6390075683594	1582.221557617188	-1072.804077148438	-170.8385467529297	1458.792724609375	-1172.796997070313	-136.8274688720703	1491.0712890625	-1156.5517578125	-102.2267761230469	1447.309204101563	-1178.771118164063	-34.85342025756837	1437.166259765625	-1178.348510742188	-48.65265274047853	1374.450805664063	-1129.614990234375	235.6316986083985	1422.106567382813	-1066.730590820313	240.8816986083985	1405.520629882813	-1141.050170898438	319.5668640136719	1442.680419921875	-1063.116333007813	-319.0979003906251	1578.771850585938	-726.4754638671876	-202.1839904785157	1429.720581054688	-618.3353271484376	-161.06689453125	1454.8779296875	-629.0685424804689	-138.5947723388672	1402.280029296875	-607.9057006835939	-74.90940856933595	1393.496704101563	-605.0638427734376	-84.9391555786133	1336.50830078125	-659.7531738281251	218.7694702148438	1359.264892578125	-662.7709350585939	207.5370025634766	1332.552124023438	-591.2799072265626	304.0982971191407	1375.950561523438	-640.0947265625001	-211.6697845458985	1101.872680664063	-1015.57275390625	-219.8694305419922	1093.378295898438	-788.8205566406252	-402.0315246582032	1152.978759765625	-907.0588989257815	-401.9862365722657	1119.978149414063	-935.3403320312502	-408.0435485839845	1120.318603515625	-876.9151611328127	-289.9809265136719	821.0638427734377	-1084.709716796875	-260.3946838378907	741.5432739257814	-1082.767456054688	-213.3907928466797	743.8394165039064	-1074.536743164063	-290.2644653320313	690.2174072265626	-1070.5126953125	-299.9407958984376	566.4833374023439	-1066.122802734375	-268.8053588867188	541.7980346679689	-953.609069824219	-250.6163177490235	415.388641357422	-1044.17578125	-321.2160034179688	376.3269348144532	-1080.7548828125	-279.1561279296876	370.8317565917969	-1067.360473632813	-279.4163513183594	292.0755920410157	-1027.955688476563	-348.7863464355469	125.4017639160157	-1051.957397460938	-327.3734741210938	127.6325607299805	-968.6358032226565	-414.7544860839845	84.80990600585939	-1009.899108886719	-182.5356903076172	56.85808181762697	-993.2285156250002	-191.5420684814453	52.29697036743165	-1036.373901367188	-238.7030487060547	31.54610633850098	-1085.097412109375	-272.2903747558594	823.7576293945315	-720.3012084960939	-230.9856567382813	771.529479980469	-714.2836914062501	-199.5554351806641	775.6123657226565	-719.1987915039064	-255.9684600830079	689.0222778320314	-722.4207153320314	-289.0723266601563	549.8031005859376	-743.0310058593751	-246.1350860595704	533.1348266601564	-853.0134887695315	-267.0039062500001	334.6684570312501	-744.6599731445314	-357.7671203613282	277.5214843750001	-740.4815063476564	-313.3554382324219	264.7825622558594	-735.0231933593751	-298.0559387207032	213.3490295410157	-764.4843139648439	-370.9066467285157	123.3642272949219	-742.0875854492189	-338.2178344726563	137.8070678710938	-824.8660278320315	-438.336395263672	99.76714324951175	-794.1987304687502	-214.3051452636719	55.30567550659181	-802.377624511719	-218.2862701416016	55.00198364257814	-756.6938476562501	-273.4996948242188	34.17867660522462	-706.6158447265626	nan	nan	nan	nan	nan	nan	nan	nan	nan	nan	nan	nan	
4	0.015	-222.4460906982422	1792.016479492188	-832.0618896484377	-371.2017822265626	1759.031616210938	-963.228942871094	-353.9177856445313	1767.118774414063	-823.4298095703127	-413.3861083984376	1588.23486328125	-905.4107055664065	-398.8281250000001	1277.772094726563	-912.580749511719	-265.5387268066407	1532.630737304688	-898.415222167969	-321.8483886718751	1582.590209960938	-1072.485229492188	-170.0068054199219	1460.897705078125	-1172.317504882813	-136.4288177490235	1493.288818359375	-1155.766845703125	-101.4127273559571	1449.939575195313	-1177.98583984375	-33.7780990600586	1440.392578125	-1177.359741210938	-47.23664855957032	1377.400024414063	-1128.995361328125	236.4647674560547	1426.950805664063	-1065.483642578125	242.1159820556641	1410.814575195313	-1139.728149414063	320.3213195800782	1448.48828125	-1061.600952148438	-319.4069519042969	1579.25537109375	-726.7143554687501	-201.1324005126954	1432.101928710938	-618.6236572265626	-160.4586181640625	1457.269165039063	-629.3329467773439	-137.2881622314453	1404.909057617188	-608.3950195312501	-73.42528533935548	1396.679077148438	-605.5004882812501	-83.2169876098633	1339.51953125	-660.0185546875001	220.2992706298829	1364.664306640625	-663.4765014648439	209.4905242919922	1338.155883789063	-591.9015502929689	305.3909301757813	1381.867919921875	-640.9064941406251	-211.7124481201172	1101.93896484375	-1015.416625976563	-219.9921417236329	1093.428833007813	-788.6970214843752	-402.1360778808595	1153.001098632813	-907.0583496093752	-402.0304565429689	1119.991821289063	-935.317077636719	-408.1233215332032	1120.343872070313	-876.8771972656252	-289.8920288085938	821.0355224609377	-1084.6103515625	-260.3504638671876	741.5676879882814	-1082.70947265625	-213.390121459961	743.8486938476564	-1074.421630859375	-290.2505493164063	690.2608642578126	-1070.42236328125	-299.8858947753907	566.4932861328126	-1066.02099609375	-268.8065795898438	541.8120727539064	-953.547546386719	-250.4855346679688	415.4374389648439	-1044.100219726563	-321.1130371093751	376.4049987792969	-1080.70068359375	-279.1146850585938	370.7936401367188	-1067.330322265625	-279.8055725097657	291.3041992187501	-1028.194091796875	-348.7732849121094	125.4319458007813	-1051.93798828125	-327.3435974121094	127.6812591552735	-968.6170043945315	-414.717254638672	84.81698608398439	-1009.885192871094	-182.552474975586	56.853084564209	-993.1925048828127	-191.5835571289063	52.28760147094728	-1036.316284179688	-238.7136535644532	31.61868286132813	-1085.041870117188	-272.4278564453126	823.7875976562502	-720.2774658203126	-231.1149139404297	771.541198730469	-714.2716674804689	-199.6496124267579	775.6347656250002	-719.1145629882814	-255.8652496337891	689.5354614257814	-722.2060546875001	-289.2088317871094	549.8395996093751	-742.9854736328126	-246.1825408935547	533.1373901367189	-852.964782714844	-267.0649108886719	334.6500244140626	-744.6321411132814	-357.8965148925782	277.5420532226563	-740.5098876953126	-313.4151000976563	264.8109130859376	-734.9771118164064	-298.0366210937501	213.3889312744141	-764.4356689453126	-370.8980407714844	123.3668518066407	-742.0858154296876	-338.2178344726563	137.8070678710938	-824.8660278320315	-438.336395263672	99.73965454101565	-794.1838378906252	-214.3516998291016	55.2926483154297	-802.3504028320315	-218.2904205322266	54.98745727539064	-756.7163085937501	-273.5061645507813	34.19580078125001	-706.6177368164064	nan	nan	nan	nan	nan	nan	nan	nan	nan	nan	nan	nan	
